<svg xmlns="http://www.w3.org/2000/svg" width="236" height="79" viewBox="0 0 236 79" fill="none"><g clip-path="url(#clip0_2144_5369)"><g clip-path="url(#clip1_2144_5369)"><path d="M85.5688 23.7941L109.127 30.8456L107.917 39.9574L101.301 44.6575H72.5L73.6259 36.5759H98.3181L98.4778 35.4749L74.998 28.4208L76.1292 19.6078L82.6649 14.8317H111.306L110.258 22.8373H85.7285L85.5688 23.7941Z" fill="#FF4500"></path><path d="M111.694 56.9255L117.342 14.8317H145.982L151.471 19.5344L148.645 39.9574L141.947 44.6601H126.86L123.631 42.4556L122.018 54.1364L119.758 56.9281H111.691L111.694 56.9255ZM128.31 36.6493H139.122L140.979 22.8373H126.213L124.679 34.2245L128.31 36.6493Z" fill="#FF4500"></path><path d="M175.38 36.6492L174.251 44.6575H158.841L153.272 40.0308L158.114 4.03162H166.262L167.715 6.82337L163.683 36.6492H175.38Z" fill="#FF4500"></path><path d="M178.964 39.9574L182.355 14.8317H192.358L189.373 36.6493H192.923L202.041 22.8373L203.088 14.8317H213.093L210.108 36.6493H213.659L222.774 22.8373L223.905 14.8317H233.829L232.779 22.8373L218.419 44.6575H205.267L200.425 40.4686L197.684 44.6575H184.531L178.964 39.9574Z" fill="#FF4500"></path><path d="M39.9709 7.46302L33.1367 11.4396L26.2763 7.46302L7.58047 18.2552L21.8407 32.4525L4.47234 42.4713C2.48231 43.6195 0 42.1803 0 39.884V16.4412C0 15.3743 0.568208 14.3887 1.49253 13.8539L24.7602 0.401068C25.6819 -0.133689 26.821 -0.133689 27.7427 0.401068L39.9709 7.46564V7.46302Z" fill="#FF4500"></path><path d="M12.5322 52.3041L19.3664 48.3275L26.2268 52.3041L44.9227 41.5146L30.6625 27.3173L48.0308 17.2984C50.0208 16.1503 52.5032 17.5894 52.5032 19.8857V43.3259C52.5032 44.3928 51.9349 45.3785 51.0106 45.9132L27.7429 59.3687C26.8212 59.9034 25.6822 59.9034 24.7605 59.3687L12.5348 52.3041H12.5322Z" fill="#FF4500"></path><path d="M161.363 68.6561V74.3785H160.07V68.9156C160.07 68.4097 159.947 67.951 159.701 67.5394C159.454 67.1279 159.125 66.7976 158.713 66.5512C158.3 66.3047 157.841 66.1815 157.339 66.1815C156.836 66.1815 156.383 66.3047 155.967 66.5512C155.55 66.7976 155.22 67.1279 154.974 67.5394C154.728 67.9536 154.605 68.4123 154.605 68.9156V74.3785H153.312V60.5142H154.605V66.4096C154.932 65.9404 155.357 65.5681 155.88 65.2903C156.404 65.0124 156.972 64.8735 157.587 64.8735C158.284 64.8735 158.918 65.0439 159.488 65.382C160.059 65.7202 160.515 66.1763 160.855 66.7504C161.193 67.3245 161.363 67.9588 161.363 68.6535" fill="#FF4500"></path><path d="M166.718 74.6197C165.87 74.6197 165.094 74.4021 164.395 73.9644C163.696 73.5266 163.138 72.9394 162.725 72.2028C162.308 71.4662 162.102 70.651 162.102 69.7571C162.102 69.0781 162.222 68.4464 162.463 67.8566C162.704 67.2694 163.034 66.7504 163.455 66.3047C163.877 65.8591 164.369 65.5078 164.927 65.2562C165.485 65.0045 166.084 64.8761 166.718 64.8761C167.566 64.8761 168.341 65.0963 169.041 65.5314C169.74 65.9692 170.297 66.5564 170.711 67.2982C171.127 68.0375 171.334 68.8579 171.334 69.7571C171.334 70.4281 171.214 71.0573 170.973 71.6418C170.732 72.2264 170.402 72.7428 169.981 73.1884C169.559 73.6367 169.069 73.9853 168.512 74.237C167.954 74.4886 167.357 74.6171 166.715 74.6171M166.718 73.3247C167.346 73.3247 167.909 73.1596 168.412 72.8293C168.915 72.499 169.31 72.0639 169.603 71.5213C169.897 70.9786 170.041 70.3914 170.041 69.7571C170.041 69.1227 169.894 68.5146 169.598 67.9693C169.302 67.4241 168.904 66.9889 168.402 66.6612C167.899 66.3336 167.338 66.171 166.715 66.171C166.092 66.171 165.524 66.3362 165.021 66.6665C164.518 66.9968 164.123 67.4319 163.83 67.9745C163.536 68.5172 163.392 69.1122 163.392 69.7597C163.392 70.4072 163.544 71.0284 163.845 71.5658C164.147 72.1058 164.55 72.5331 165.055 72.8503C165.561 73.1675 166.113 73.3274 166.718 73.3274" fill="#FF4500"></path><path d="M173.764 60.5142H172.471V74.3785H173.764V60.5142Z" fill="#FF4500"></path><path d="M183.144 60.5142H184.437V74.3785H183.144V72.6511C182.824 73.2435 182.384 73.718 181.827 74.0797C181.269 74.4415 180.609 74.6197 179.847 74.6197C179.177 74.6197 178.548 74.4939 177.964 74.2396C177.38 73.988 176.865 73.6367 176.417 73.1911C175.969 72.7454 175.621 72.229 175.369 71.6418C175.118 71.0573 174.99 70.4281 174.99 69.7571C174.99 69.086 175.115 68.4543 175.369 67.8671C175.621 67.2799 175.972 66.7609 176.417 66.3152C176.862 65.8696 177.378 65.5183 177.964 65.2667C178.548 65.015 179.177 64.8892 179.847 64.8892C180.609 64.8892 181.269 65.0701 181.827 65.4292C182.384 65.791 182.822 66.2628 183.144 66.8474V60.5168V60.5142ZM179.857 73.3615C180.517 73.3615 181.083 73.1989 181.557 72.8765C182.031 72.5541 182.395 72.1163 182.651 71.5684C182.908 71.0206 183.034 70.4177 183.034 69.7571C183.034 69.0965 182.905 68.4674 182.646 67.9221C182.387 67.3769 182.02 66.9444 181.546 66.6246C181.072 66.3047 180.509 66.1448 179.857 66.1448C179.205 66.1448 178.611 66.3074 178.074 66.6298C177.54 66.9522 177.111 67.39 176.791 67.9379C176.472 68.4857 176.312 69.0939 176.312 69.7597C176.312 70.4255 176.474 71.0389 176.802 71.5842C177.129 72.1294 177.561 72.5619 178.098 72.8817C178.637 73.2016 179.224 73.3615 179.857 73.3615Z" fill="#FF4500"></path><path d="M186.938 63.5183C186.728 63.5183 186.55 63.4501 186.406 63.3112C186.262 63.1722 186.189 62.9992 186.189 62.7895C186.189 62.5798 186.262 62.4068 186.406 62.2679C186.55 62.1289 186.728 62.0608 186.938 62.0608C187.147 62.0608 187.315 62.1289 187.459 62.2679C187.603 62.4068 187.676 62.5798 187.676 62.7895C187.676 62.9992 187.606 63.1722 187.464 63.3112C187.323 63.4501 187.147 63.5183 186.938 63.5183ZM186.283 65.1356H187.577V74.3786H186.283V65.1356Z" fill="#FF4500"></path><path d="M197.443 68.6561V74.3785H196.149V68.9156C196.149 68.4097 196.026 67.951 195.78 67.5394C195.534 67.1278 195.204 66.7976 194.793 66.5511C194.379 66.3047 193.921 66.1815 193.418 66.1815C192.916 66.1815 192.463 66.3047 192.046 66.5511C191.63 66.7976 191.3 67.1278 191.054 67.5394C190.808 67.9536 190.685 68.4123 190.685 68.9156V74.3785H189.391V65.1356H190.685V66.4122C191.012 65.943 191.436 65.5708 191.96 65.2929C192.484 65.015 193.052 64.8761 193.667 64.8761C194.364 64.8761 194.997 65.0465 195.568 65.3846C196.139 65.7228 196.595 66.1789 196.935 66.753C197.273 67.3271 197.443 67.9614 197.443 68.6561Z" fill="#FF4500"></path><path d="M206.076 65.1356H207.369V74.7219C207.369 75.3143 207.241 75.8674 206.987 76.3865C206.731 76.9029 206.388 77.359 205.953 77.7496C205.518 78.1402 205.026 78.4468 204.471 78.6697C203.916 78.8925 203.342 79.0026 202.745 79.0026C202.104 79.0026 201.486 78.8558 200.889 78.5648C200.292 78.2712 199.773 77.8833 199.333 77.3957C198.894 76.9081 198.582 76.3707 198.396 75.7783L199.587 75.2331C199.705 75.6944 199.925 76.1138 200.247 76.4861C200.569 76.8583 200.952 77.1545 201.392 77.3721C201.831 77.5897 202.282 77.6998 202.745 77.6998C203.169 77.6998 203.581 77.6211 203.979 77.4638C204.377 77.3066 204.733 77.0916 205.05 76.8216C205.366 76.549 205.618 76.2344 205.801 75.8753C205.987 75.5136 206.079 75.1308 206.079 74.7245V72.6825C205.759 73.2618 205.327 73.731 204.782 74.0875C204.238 74.444 203.607 74.6249 202.884 74.6249C202.237 74.6249 201.63 74.4991 201.062 74.2448C200.493 73.9932 199.993 73.6419 199.561 73.1963C199.129 72.7506 198.794 72.2342 198.55 71.647C198.307 71.0625 198.187 70.4334 198.187 69.7623C198.187 69.0912 198.307 68.4595 198.55 67.8723C198.794 67.2851 199.132 66.7661 199.561 66.3204C199.991 65.8748 200.491 65.5235 201.062 65.2719C201.63 65.0202 202.24 64.8944 202.884 64.8944C203.604 64.8944 204.238 65.0727 204.782 65.4265C205.327 65.7804 205.759 66.2523 206.079 66.8368V65.1461L206.076 65.1356ZM202.892 73.3614C203.531 73.3614 204.083 73.1963 204.549 72.8633C205.013 72.5304 205.372 72.0901 205.626 71.5422C205.877 70.9943 206.005 70.3993 206.005 69.7597C206.005 69.12 205.877 68.4988 205.623 67.9535C205.366 67.4083 205.005 66.9705 204.539 66.6402C204.07 66.3099 203.523 66.1448 202.897 66.1448C202.271 66.1448 201.698 66.3073 201.185 66.6297C200.671 66.9522 200.263 67.39 199.962 67.9378C199.661 68.4857 199.509 69.0938 199.509 69.7597C199.509 70.4255 199.663 71.031 199.97 71.5763C200.276 72.1215 200.687 72.5566 201.203 72.8791C201.716 73.2015 202.282 73.364 202.897 73.364" fill="#FF4500"></path><path d="M214.57 60.5142H213.277V74.3785H214.57V60.5142Z" fill="#FF4500"></path><path d="M217.074 63.5183C216.864 63.5183 216.686 63.4501 216.542 63.3112C216.398 63.1722 216.325 62.9992 216.325 62.7895C216.325 62.5798 216.398 62.4068 216.542 62.2679C216.686 62.1289 216.864 62.0608 217.074 62.0608C217.283 62.0608 217.451 62.1289 217.595 62.2679C217.739 62.4068 217.812 62.5798 217.812 62.7895C217.812 62.9992 217.741 63.1722 217.6 63.3112C217.459 63.4501 217.283 63.5183 217.074 63.5183ZM216.416 65.1356H217.71V74.3786H216.416V65.1356Z" fill="#FF4500"></path><path d="M221.467 62.7239V65.1356H224.238V66.4306H221.467V74.3785H220.174V66.4306H218.909V65.1356H220.174V62.7239C220.174 62.2731 220.284 61.8668 220.501 61.4998C220.719 61.1328 221.014 60.8418 221.384 60.6216C221.753 60.404 222.161 60.2939 222.612 60.2939C222.936 60.2939 223.253 60.3595 223.557 60.4879C223.861 60.6164 224.133 60.8077 224.374 61.062L223.45 61.9769C223.35 61.8537 223.227 61.7593 223.075 61.6911C222.923 61.623 222.769 61.5889 222.609 61.5889C222.295 61.5889 222.025 61.699 221.803 61.9218C221.577 62.1446 221.465 62.412 221.465 62.7266" fill="#FF4500"></path><path d="M229.194 74.6197C228.346 74.6197 227.571 74.4021 226.872 73.9644C226.173 73.5266 225.615 72.9394 225.201 72.2028C224.785 71.4662 224.578 70.651 224.578 69.7571C224.578 69.0781 224.699 68.4464 224.939 67.8566C225.18 67.2694 225.51 66.7504 225.932 66.3047C226.353 65.8591 226.843 65.5078 227.403 65.2562C227.964 65.0045 228.561 64.8761 229.194 64.8761C229.878 64.8761 230.506 65.0124 231.082 65.2824C231.658 65.5524 232.153 65.9325 232.57 66.4201C232.986 66.9077 233.3 67.4765 233.512 68.1292C233.724 68.7819 233.813 69.4871 233.777 70.2446H225.948C226.021 70.8292 226.207 71.3535 226.505 71.8148C226.804 72.2762 227.186 72.6406 227.65 72.9106C228.113 73.178 228.629 73.3169 229.197 73.3221C229.812 73.3221 230.368 73.1622 230.865 72.8424C231.36 72.5226 231.758 72.0822 232.059 71.5213L233.371 71.8253C233.002 72.6458 232.444 73.3143 231.7 73.8359C230.957 74.3576 230.121 74.6171 229.197 74.6171M225.908 69.2013H232.473C232.428 68.6273 232.255 68.103 231.952 67.6259C231.648 67.1488 231.255 66.7661 230.776 66.4804C230.297 66.1946 229.771 66.0505 229.197 66.0505C228.624 66.0505 228.103 66.192 227.629 66.4699C227.155 66.7504 226.767 67.1305 226.466 67.6076C226.165 68.0846 225.979 68.6168 225.914 69.2013" fill="#FF4500"></path><path d="M235.251 74.6197C235.047 74.6197 234.874 74.5463 234.733 74.4022C234.591 74.258 234.521 74.0797 234.521 73.87C234.521 73.6734 234.591 73.503 234.733 73.3562C234.874 73.2121 235.047 73.1387 235.251 73.1387C235.455 73.1387 235.636 73.2121 235.783 73.3562C235.929 73.5004 236 73.6734 236 73.87C236 74.0797 235.927 74.258 235.783 74.4022C235.639 74.5463 235.461 74.6197 235.251 74.6197Z" fill="#FF4500"></path></g></g><defs><clipPath id="clip0_2144_5369"><rect width="236" height="79" fill="white"></rect></clipPath><clipPath id="clip1_2144_5369"><rect width="236" height="79" fill="white"></rect></clipPath></defs></svg>